####
#
# OBJ File Generated by Meshlab
#
####
# Object box_big.obj
#
# Vertices: 32
# Faces: 68
#
####
vn 4.712410 -1.570777 -1.570805
v 0.300000 0.047167 0.215368
vn 1.570786 1.570786 1.570796
v 0.300000 0.200000 0.250000
vn 1.570784 -1.570782 1.570797
v 0.300000 -0.200000 0.250000
vn 1.570796 1.570799 -1.570798
v 0.300000 0.200000 0.010000
vn 4.712404 -1.570790 1.570783
v 0.300000 0.047167 0.190368
vn 1.570796 -1.570796 -1.570795
v 0.300000 -0.200000 0.010000
vn 4.712344 1.570825 1.570785
v 0.300000 -0.052833 0.190368
vn 4.712374 1.570769 -1.570843
v 0.300000 -0.052833 0.215368
vn -1.570805 1.570803 1.570798
v -0.300000 0.200000 0.250000
vn -1.570796 1.570797 -1.570796
v -0.300000 0.200000 0.010000
vn -4.712330 -1.570817 -1.570803
v -0.300000 0.047166 0.215368
vn -4.712379 -1.570787 1.570806
v -0.300000 0.047166 0.190367
vn -4.712448 1.570780 1.570769
v -0.300000 -0.052834 0.190368
vn -1.570793 -1.570795 -1.570795
v -0.300000 -0.200000 0.010000
vn -4.712344 1.570803 -1.570832
v -0.300000 -0.052833 0.215368
vn -1.570793 -1.570794 1.570800
v -0.300000 -0.200000 0.250000
vn 1.570778 -1.570781 4.712388
v -0.285000 0.185000 0.250000
vn 1.570804 1.570808 4.712387
v -0.285000 -0.185000 0.250000
vn -1.570835 1.570830 4.712391
v 0.285000 -0.185000 0.250000
vn -1.570821 -1.570824 4.712392
v 0.285000 0.185000 0.250000
vn -4.712361 -1.570811 -1.570799
v 0.285000 0.047167 0.215368
vn -4.712379 -1.570795 1.570802
v 0.285000 0.047167 0.190368
vn -1.570798 -1.570797 1.570799
v 0.285000 0.185000 0.040000
vn -4.712456 1.570793 1.570762
v 0.285000 -0.052834 0.190367
vn -1.570797 1.570796 1.570796
v 0.285000 -0.185000 0.040000
vn -4.712400 1.570814 -1.570748
v 0.285000 -0.052834 0.215368
vn 1.570796 1.570796 1.570797
v -0.285000 -0.185000 0.040000
vn 4.712455 -1.570784 -1.570775
v -0.285000 0.047167 0.215368
vn 1.570794 -1.570796 1.570793
v -0.285000 0.185000 0.040000
vn 4.712402 -1.570792 1.570788
v -0.285000 0.047167 0.190368
vn 4.712321 1.570816 1.570827
v -0.285000 -0.052833 0.190368
vn 4.712408 1.570777 -1.570801
v -0.285000 -0.052833 0.215368
# 32 vertices, 0 vertices normals

f 1//1 2//2 3//3
f 2//2 1//1 4//4
f 4//4 1//1 5//5
f 4//4 5//5 6//6
f 6//6 5//5 7//7
f 6//6 7//7 3//3
f 3//3 7//7 8//8
f 3//3 8//8 1//1
f 9//9 2//2 10//10
f 10//10 2//2 4//4
f 11//11 9//9 12//12
f 12//12 9//9 10//10
f 12//12 10//10 13//13
f 13//13 10//10 14//14
f 13//13 14//14 15//15
f 15//15 14//14 16//16
f 15//15 16//16 11//11
f 11//11 16//16 9//9
f 3//3 16//16 6//6
f 6//6 16//16 14//14
f 17//17 9//9 18//18
f 18//18 9//9 16//16
f 18//18 16//16 19//19
f 19//19 16//16 3//3
f 19//19 3//3 20//20
f 20//20 3//3 2//2
f 20//20 2//2 17//17
f 17//17 2//2 9//9
f 14//14 10//10 6//6
f 6//6 10//10 4//4
f 21//21 20//20 22//22
f 22//22 20//20 23//23
f 22//22 23//23 24//24
f 24//24 23//23 25//25
f 24//24 25//25 26//26
f 26//26 25//25 19//19
f 26//26 19//19 21//21
f 21//21 19//19 20//20
f 25//25 27//27 19//19
f 19//19 27//27 18//18
f 28//28 17//17 18//18
f 17//17 28//28 29//29
f 29//29 28//28 30//30
f 29//29 30//30 27//27
f 27//27 30//30 31//31
f 27//27 31//31 18//18
f 18//18 31//31 32//32
f 18//18 32//32 28//28
f 29//29 23//23 17//17
f 17//17 23//23 20//20
f 29//29 27//27 23//23
f 23//23 27//27 25//25
f 13//13 31//31 12//12
f 12//12 31//31 30//30
f 15//15 32//32 13//13
f 13//13 32//32 31//31
f 11//11 28//28 15//15
f 15//15 28//28 32//32
f 12//12 30//30 11//11
f 11//11 30//30 28//28
f 1//1 21//21 5//5
f 5//5 21//21 22//22
f 8//8 26//26 1//1
f 1//1 26//26 21//21
f 7//7 24//24 8//8
f 8//8 24//24 26//26
f 5//5 22//22 7//7
f 7//7 22//22 24//24
# 68 faces, 0 coords texture

# End of File
